<svg width="58" height="58" fill="none" xmlns="http://www.w3.org/2000/svg"><rect width="58" height="58" rx="4" fill="#B5F2E3"/><g filter="url(#filter0_d)"><path d="M34.752 23.669c2.898 0 5.248-2.388 5.248-5.332C40 15.394 37.65 13 34.752 13H24.248C21.35 13 19 15.387 19 18.331c0 2.944 2.35 5.332 5.248 5.332C21.35 23.669 19 26.056 19 29s2.35 5.331 5.248 5.331C21.35 34.331 19 36.72 19 39.67S21.35 45 24.248 45s5.249-2.388 5.249-5.331v-16h5.255zm0 0c-2.899 0-5.249 2.387-5.249 5.331 0 2.944 2.35 5.331 5.248 5.331C37.65 34.331 40 31.944 40 29c0-2.944-2.35-5.331-5.248-5.331z" fill="#fff"/></g><defs><filter id="filter0_d" x="17" y="13" width="29" height="40" filterUnits="userSpaceOnUse" color-interpolation-filters="sRGB"><feFlood flood-opacity="0" result="BackgroundImageFix"/><feColorMatrix in="SourceAlpha" values="0 0 0 0 0 0 0 0 0 0 0 0 0 0 0 0 0 0 127 0"/><feOffset dx="2" dy="4"/><feGaussianBlur stdDeviation="2"/><feColorMatrix values="0 0 0 0 0.270588 0 0 0 0 0.345098 0 0 0 0 0.501961 0 0 0 0.2 0"/><feBlend in2="BackgroundImageFix" result="effect1_dropShadow"/><feBlend in="SourceGraphic" in2="effect1_dropShadow" result="shape"/></filter></defs></svg>